<?xml version="1.0" encoding="UTF-8" standalone="no" ?>
<svg  viewBox="0 0 640 480" xml:space="preserve">
<g transform="matrix(1 0 0 1 61.96 59.07)" id="Layer_1"  >
<path transform=" translate(-61.46, -58.61)" d="M 64.39 2 L 80.11 38.76 L 120 42.33 a 3.2 3.2 0 0 1 1.83 5.59 h 0 L 91.64 74.25 l 8.92 39 a 3.2 3.2 0 0 1 -4.87 3.4 L 61.44 96.19 L 27.09 116.73 a 3.2 3.2 0 0 1 -4.76 -3.46 h 0 l 8.92 -39 L 1.09 47.92 A 3.2 3.2 0 0 1 3 42.32 l 39.74 -3.56 L 58.49 2 a 3.2 3.2 0 0 1 5.9 0 Z" />
</g>
<g transform="matrix(1 0 0 1 188.96 59.07)"  >
<path transform=" translate(-61.46, -58.61)" d="M 64.39 2 L 80.11 38.76 L 120 42.33 a 3.2 3.2 0 0 1 1.83 5.59 h 0 L 91.64 74.25 l 8.92 39 a 3.2 3.2 0 0 1 -4.87 3.4 L 61.44 96.19 L 27.09 116.73 a 3.2 3.2 0 0 1 -4.76 -3.46 h 0 l 8.92 -39 L 1.09 47.92 A 3.2 3.2 0 0 1 3 42.32 l 39.74 -3.56 L 58.49 2 a 3.2 3.2 0 0 1 5.9 0 Z" />
</g>
<g transform="matrix(1 0 0 1 316.96 59.07)"  >
<path transform=" translate(-61.46, -58.61)" d="M 64.39 2 L 80.11 38.76 L 120 42.33 a 3.2 3.2 0 0 1 1.83 5.59 h 0 L 91.64 74.25 l 8.92 39 a 3.2 3.2 0 0 1 -4.87 3.4 L 61.44 96.19 L 27.09 116.73 a 3.2 3.2 0 0 1 -4.76 -3.46 h 0 l 8.92 -39 L 1.09 47.92 A 3.2 3.2 0 0 1 3 42.32 l 39.74 -3.56 L 58.49 2 a 3.2 3.2 0 0 1 5.9 0 Z" />
</g>
<g transform="matrix(1 0 0 1 444.96 60.07)"  >
<path transform=" translate(-61.46, -58.61)" d="M 64.39 2 L 80.11 38.76 L 120 42.33 a 3.2 3.2 0 0 1 1.83 5.59 h 0 L 91.64 74.25 l 8.92 39 a 3.2 3.2 0 0 1 -4.87 3.4 L 61.44 96.19 L 27.09 116.73 a 3.2 3.2 0 0 1 -4.76 -3.46 h 0 l 8.92 -39 L 1.09 47.92 A 3.2 3.2 0 0 1 3 42.32 l 39.74 -3.56 L 58.49 2 a 3.2 3.2 0 0 1 5.9 0 Z"/>
</g>
<g transform="matrix(1 0 0 1 572.96 60.07)"  >
<path transform=" translate(-61.46, -58.61)" d="M 64.39 2 L 80.11 38.76 L 120 42.33 a 3.2 3.2 0 0 1 1.83 5.59 h 0 L 91.64 74.25 l 8.92 39 a 3.2 3.2 0 0 1 -4.87 3.4 L 61.44 96.19 L 27.09 116.73 a 3.2 3.2 0 0 1 -4.76 -3.46 h 0 l 8.92 -39 L 1.09 47.92 A 3.2 3.2 0 0 1 3 42.32 l 39.74 -3.56 L 58.49 2 a 3.2 3.2 0 0 1 5.9 0 Z" />
</g>
</svg>